<svg width="330" height="100" viewBox="0 0 330 100" fill="none" xmlns="http://www.w3.org/2000/svg">
<path d="M146.101 60.313L185.928 56.8616H142.649L146.101 60.313Z" fill="#B8B8B8"/>
<path d="M195.158 42.6262C194.341 42.6453 193.547 42.9 192.872 43.3596V42.8851H190.196V54.6199H192.872V47.7602C192.853 47.4597 192.896 47.1585 192.998 46.8752C193.1 46.5919 193.259 46.3325 193.465 46.113C193.671 45.8935 193.92 45.7186 194.197 45.599C194.473 45.4794 194.771 45.4178 195.072 45.4178C195.373 45.4178 195.671 45.4794 195.948 45.599C196.224 45.7186 196.473 45.8935 196.679 46.113C196.885 46.3325 197.045 46.5919 197.147 46.8752C197.249 47.1585 197.292 47.4597 197.273 47.7602V54.6631H199.948V47.7602C199.948 44.9128 198.006 42.6262 195.158 42.6262Z" fill="#B8B8B8"/>
<path d="M184.03 42.5814C180.923 42.5814 178.723 45.2994 178.723 48.7508C178.723 52.3748 181.484 54.9202 184.289 54.9202C185.713 54.9202 187.482 54.4457 188.992 52.2885L186.619 50.908C184.807 53.5829 181.743 52.2454 181.398 49.5274H189.078C189.769 45.3857 187.05 42.5814 184.03 42.5814ZM181.57 47.2408C182.131 44.5228 185.842 44.3503 186.36 47.2408H181.57Z" fill="#B8B8B8"/>
<path d="M173.023 50.7377C172.999 51.2755 173.084 51.8125 173.272 52.3168C173.46 52.8211 173.748 53.2823 174.119 53.6728C174.489 54.0634 174.935 54.3754 175.428 54.5901C175.922 54.8048 176.454 54.9179 176.992 54.9225C177.902 54.8907 178.79 54.6391 179.581 54.1892L177.855 51.8594C177.59 52.0484 177.275 52.1537 176.949 52.1614C176.771 52.1564 176.596 52.1148 176.436 52.0392C176.274 51.9635 176.131 51.8556 176.013 51.722C175.896 51.5884 175.807 51.4321 175.753 51.2627C175.699 51.0933 175.68 50.9147 175.698 50.7377V45.69H177.985V42.8857H175.698V39.952H173.023V42.8857H171.599V45.69H173.023V50.7377Z" fill="#B8B8B8"/>
<path d="M165.734 54.9188C166.551 54.8996 167.345 54.645 168.021 54.1853V54.6167H170.696V42.882H168.021V49.7848C168.04 50.0853 167.997 50.3866 167.895 50.6698C167.793 50.9532 167.633 51.2126 167.427 51.432C167.221 51.6515 166.972 51.8264 166.696 51.9459C166.419 52.0656 166.121 52.1272 165.82 52.1272C165.519 52.1272 165.221 52.0656 164.945 51.9459C164.668 51.8264 164.419 51.6515 164.213 51.432C164.007 51.2126 163.848 50.9532 163.746 50.6698C163.644 50.3866 163.601 50.0853 163.619 49.7848V42.882H160.944V49.7848C160.944 52.6322 162.886 54.9188 165.734 54.9188Z" fill="#B8B8B8"/>
<path d="M153.565 49.8299L157.535 54.6619H161.246L155.938 48.4062L160.512 42.8839H156.801L153.565 46.9825V39.0011H150.847V54.6619H153.565V49.8299Z" fill="#B8B8B8"/>
<path d="M146.664 54.1005V54.6183H149.339V42.8834H146.664V43.4011C145.935 42.8751 145.06 42.5887 144.161 42.5814C141.141 42.5814 138.811 45.3426 138.811 48.7508C138.811 52.1591 141.097 54.9202 144.161 54.9202C145.061 54.9197 145.938 54.6326 146.664 54.1005ZM141.529 48.794C141.529 46.9388 142.608 45.472 144.118 45.472C145.628 45.472 146.664 46.9388 146.664 48.794C146.664 50.6492 145.628 52.116 144.118 52.116C142.608 52.116 141.529 50.6492 141.529 48.794Z" fill="#B8B8B8"/>
<path d="M137.946 44.9973C137.945 43.6589 137.413 42.3757 136.467 41.4293C135.52 40.4829 134.237 39.9507 132.898 39.9496H128.324V54.6181H131.129V50.0882H133.071L136.479 54.6181H139.974L135.832 49.139C136.493 48.671 137.031 48.0497 137.399 47.3283C137.767 46.607 137.955 45.8071 137.946 44.9973ZM132.941 47.327H131.129V42.7539H132.941C133.548 42.7539 134.129 42.9948 134.558 43.4236C134.987 43.8524 135.228 44.434 135.228 45.0404C135.228 45.6469 134.987 46.2285 134.558 46.6573C134.129 47.0861 133.548 47.327 132.941 47.327Z" fill="#B8B8B8"/>
<rect x="0.5" y="0.5" width="329" height="99" rx="3.5" stroke="#E1E1E1"/>
</svg>
