<svg width="330" height="100" viewBox="0 0 330 100" fill="none" xmlns="http://www.w3.org/2000/svg">
<g clip-path="url(#clip0_1_1125)">
<path fill-rule="evenodd" clip-rule="evenodd" d="M123.782 53.6742L126.544 56.4369L124.24 58.8392C123.493 59.6182 122.281 59.6182 121.534 58.8392L115.784 52.8441C115.037 52.065 115.037 50.8019 115.784 50.023C116.531 49.244 117.743 49.244 118.49 50.023L122.887 54.6074L123.782 53.6742ZM124.5 52.9256L126.946 50.3751L129.652 53.1962L127.399 55.545L124.5 52.9256Z" fill="#B8B8B8"/>
<path fill-rule="evenodd" clip-rule="evenodd" d="M135.568 55.4919L132.686 52.8554L139.46 45.7917C140.207 45.0127 141.419 45.0127 142.166 45.7917C142.913 46.5707 142.913 47.8337 142.166 48.613L135.568 55.4919ZM134.672 56.4268L132.358 58.8391C131.611 59.618 130.4 59.618 129.652 58.8391L119.844 48.612C119.096 47.8327 119.096 46.5697 119.844 45.7907C120.591 45.0115 121.802 45.0115 122.549 45.7907L131.005 54.6072L131.956 53.6156L134.672 56.4268Z" fill="#B8B8B8"/>
<path fill-rule="evenodd" clip-rule="evenodd" d="M131.413 52.2081L134.106 49.3738L139.125 54.6069L143.521 50.0235C144.268 49.2445 145.479 49.2445 146.227 50.0235C146.974 50.8028 146.974 52.0657 146.227 52.8446L140.478 58.8388C139.731 59.6177 138.519 59.6177 137.772 58.8388L131.413 52.2081ZM130.297 51.045L123.904 44.3793C123.157 43.6003 123.157 42.3373 123.904 41.5583C124.651 40.7791 125.863 40.7791 126.61 41.5583L133.01 48.2309L130.297 51.045Z" fill="#B8B8B8"/>
<path fill-rule="evenodd" clip-rule="evenodd" d="M138.106 41.5581C137.359 40.7791 136.148 40.7791 135.4 41.5581L126.945 50.3736L129.651 53.1949L138.106 44.3793C138.853 43.6001 138.853 42.3371 138.106 41.5581Z" fill="#B8B8B8"/>
<path fill-rule="evenodd" clip-rule="evenodd" d="M156.689 42.938H154.336V57.3482H162.957V55.1719H156.689V42.938ZM168.049 47.2709C169.479 47.2709 170.439 47.8787 170.966 48.6237L171.079 47.4669H173.112V57.3482H171.079L170.966 56.1915C170.439 56.9365 169.479 57.5442 168.049 57.5442C165.47 57.5442 163.719 55.368 163.719 52.4076C163.719 49.4275 165.47 47.2709 168.049 47.2709ZM168.538 49.3491C167.07 49.3491 166.016 50.5451 166.016 52.4076C166.016 54.2701 167.07 55.466 168.538 55.466C169.667 55.466 170.345 54.8387 170.853 53.9956V50.8195C170.345 49.9765 169.667 49.3491 168.538 49.3491ZM178.806 44.1536H176.548V47.4669H174.76V49.4667H176.548V53.8583C176.548 56.2502 177.922 57.5442 180.086 57.5442C181.027 57.5442 181.724 57.2698 182.195 56.956L181.592 55.1132C181.31 55.2896 180.896 55.4269 180.293 55.4269C179.409 55.4269 178.806 54.8387 178.806 53.8388V49.4667H181.667V47.4669H178.806V44.1536ZM186.59 44.1536H184.331V47.4669H182.543V49.4667H184.331V53.8583C184.331 56.2502 185.706 57.5442 187.87 57.5442C188.811 57.5442 189.508 57.2698 189.978 56.956L189.376 55.1132C189.094 55.2896 188.679 55.4269 188.077 55.4269C187.193 55.4269 186.59 54.8387 186.59 53.8388V49.4667H189.451V47.4669H186.59V44.1536ZM193.753 47.4669H191.494V57.3482H193.753V47.4669ZM192.623 42.8596C191.833 42.8596 191.23 43.4674 191.23 44.3104C191.23 45.1535 191.833 45.7613 192.623 45.7613C193.433 45.7613 194.035 45.1535 194.035 44.3104C194.035 43.4674 193.433 42.8596 192.623 42.8596ZM200.576 47.2709C197.659 47.2709 195.72 49.4275 195.72 52.4076C195.72 55.368 197.678 57.5442 200.595 57.5442C202.308 57.5442 203.607 56.7405 204.454 55.368L202.835 54.0545C202.383 54.8387 201.649 55.4856 200.614 55.4856C198.939 55.4856 198.017 54.1329 198.017 52.4076C198.017 50.6627 198.901 49.3295 200.595 49.3295C201.649 49.3295 202.346 49.9569 202.779 50.7411L204.416 49.4471C203.569 48.0747 202.308 47.2709 200.576 47.2709ZM209.979 47.2709C212.896 47.2709 214.327 49.5451 214.327 52.3095V53.133H207.626C207.683 54.7014 208.586 55.564 210.167 55.564C211.278 55.564 212.087 55.0543 212.52 54.427L214.082 55.7601C213.141 56.9365 211.899 57.5442 210.148 57.5442C207.212 57.5442 205.33 55.3876 205.33 52.4272C205.33 49.4471 207.25 47.2709 209.979 47.2709ZM209.941 49.153C208.605 49.153 207.701 50.0745 207.626 51.4469H212.106C212.049 50.0941 211.296 49.153 209.941 49.153Z" fill="#B8B8B8"/>
</g>
<rect x="0.5" y="0.5" width="329" height="99" rx="3.5" stroke="#E1E1E1"/>
<defs>
<clipPath id="clip0_1_1125">
<rect width="100" height="20" fill="white" transform="translate(115 40)"/>
</clipPath>
</defs>
</svg>
