<svg width="330" height="100" viewBox="0 0 330 100" fill="none" xmlns="http://www.w3.org/2000/svg">
<g clip-path="url(#clip0_1_1102)">
<path d="M181.281 57.2965C182.616 57.3252 183.908 56.8209 184.874 55.894L186.658 57.8219C185.479 59.0371 183.851 59.9371 181.312 59.9371C176.963 59.9371 174.157 57.0407 174.157 53.1209C174.139 52.2424 174.294 51.369 174.613 50.5508C174.932 49.7326 175.409 48.9855 176.015 48.3524C176.622 47.7193 177.347 47.2126 178.149 46.8612C178.951 46.5098 179.814 46.3207 180.689 46.3047H180.93C185.247 46.3047 187.695 49.6031 187.481 54.1808H177.264C177.628 56.0813 178.956 57.2919 181.281 57.2919V57.2965ZM184.392 51.9833C184.119 50.2107 183.064 48.9042 180.948 48.9042C180.06 48.852 179.185 49.1412 178.5 49.7129C177.816 50.2847 177.374 51.0963 177.264 51.9833H184.392Z" fill="#B8B8B8"/>
<path d="M114.272 57.1576L122.129 49.1445H114.459V46.6272H125.768V49.1947L117.912 57.2079H125.873V59.7205H114.272V57.1576Z" fill="#B8B8B8"/>
<path d="M134.693 57.2968C136.028 57.3254 137.321 56.8212 138.286 55.8942L140.07 57.8221C138.891 59.0373 137.263 59.9373 134.724 59.9373C130.375 59.9373 127.569 57.0409 127.569 53.1211C127.551 52.2434 127.706 51.3707 128.025 50.5531C128.343 49.7355 128.818 48.9888 129.424 48.3558C130.03 47.7229 130.754 47.2159 131.555 46.8641C132.356 46.5121 133.218 46.3222 134.092 46.3049H134.333C138.65 46.3049 141.098 49.6034 140.884 54.181H130.676C131.04 56.0816 132.368 57.2921 134.693 57.2921V57.2968ZM137.804 51.9836C137.531 50.211 136.476 48.9044 134.36 48.9044C133.472 48.8523 132.597 49.1414 131.913 49.7132C131.228 50.2849 130.786 51.0966 130.676 51.9836H137.804Z" fill="#B8B8B8"/>
<path d="M157.838 53.1353C157.838 48.9459 160.954 46.3282 164.384 46.3282C165.207 46.3175 166.022 46.4878 166.773 46.8272C167.523 47.1665 168.191 47.6667 168.728 48.2926V40.5627H171.503V59.6818H168.728V57.8545C168.201 58.5066 167.534 59.0313 166.777 59.3896C166.021 59.7478 165.193 59.9305 164.357 59.924C163.493 59.9174 162.64 59.7402 161.845 59.4024C161.05 59.0645 160.329 58.5726 159.723 57.955C159.117 57.3373 158.639 56.6058 158.314 55.8024C157.99 54.9989 157.827 54.1392 157.833 53.2723C157.833 53.2175 157.833 53.1672 157.833 53.117L157.838 53.1353ZM168.883 53.0896C168.866 51.9807 168.413 50.9237 167.623 50.1489C166.833 49.3741 165.77 48.9442 164.665 48.9529C163.561 48.9617 162.505 49.4083 161.727 50.1956C160.95 50.9828 160.513 52.0468 160.513 53.1558C160.513 54.2648 160.95 55.3288 161.727 56.1161C162.505 56.9033 163.561 57.35 164.665 57.3586C165.77 57.3674 166.833 56.9376 167.623 56.1628C168.413 55.3878 168.866 54.3309 168.883 53.2221V53.0896Z" fill="#B8B8B8"/>
<path d="M189.277 56.9061L191.788 55.5949C192.121 56.1893 192.609 56.6812 193.2 57.0176C193.791 57.3541 194.462 57.5225 195.141 57.5045C196.71 57.5045 197.525 56.696 197.525 55.7777C197.525 54.7315 196.005 54.4939 194.34 54.1559C192.116 53.6991 189.791 52.9498 189.791 50.2544C189.791 48.1848 191.752 46.2752 194.845 46.2981C197.279 46.2981 199.085 47.2666 200.108 48.8381L197.811 50.1219C197.489 49.6428 197.05 49.2542 196.537 48.9928C196.024 48.7314 195.452 48.6059 194.877 48.628C193.385 48.628 192.625 49.3635 192.625 50.1995C192.625 51.1407 193.831 51.4056 195.714 51.8214C197.861 52.2782 200.295 53 200.295 55.7228C200.295 57.5503 198.726 59.9669 195.004 59.9396C192.275 59.9396 190.369 58.8385 189.272 56.9015" fill="#B8B8B8"/>
<path d="M207.838 53.8662L205.636 56.2738V59.6818H202.861V40.5627H205.636V53.0804L211.527 46.584H214.907L209.799 52.1896L215.035 59.6818H211.896L207.838 53.8662Z" fill="#B8B8B8"/>
<path d="M149.449 46.3229C146.151 46.3229 143.39 48.4701 143.39 52.0335V59.6812H146.219V52.3716C146.219 50.2244 147.447 48.9407 149.545 48.9407C151.642 48.9407 152.688 50.2244 152.688 52.3716V59.6812H155.504V52.029C155.504 48.4656 152.743 46.3184 149.444 46.3184" fill="#B8B8B8"/>
</g>
<rect x="0.5" y="0.5" width="329" height="99" rx="3.5" stroke="#E1E1E1"/>
<defs>
<clipPath id="clip0_1_1102">
<rect width="102" height="20" fill="white" transform="translate(114 40)"/>
</clipPath>
</defs>
</svg>
