<svg width="130" height="80" viewBox="0 0 130 80" fill="none" xmlns="http://www.w3.org/2000/svg">
<g clip-path="url(#clip0_1_853)">
<path d="M48.5799 23.9234L43.7202 21.5378V30.0422C43.7202 30.7785 43.7571 31.4118 43.8307 31.9419C43.9191 32.4721 44.0369 33.0832 44.1841 33.7753C44.3608 34.6442 44.4713 35.2995 44.5155 35.7413H40.208C40.2522 35.2995 40.3626 34.6442 40.5394 33.7753C40.6866 33.0832 40.7971 32.4721 40.8707 31.9419C40.9591 31.4118 41.0032 30.7785 41.0032 30.0422V21.4715L36.1436 23.9234V20.3008H48.5799V23.9234Z" fill="#DD2D38"/>
<path d="M60.872 30.0418C60.872 30.7781 60.9088 31.4114 60.9825 31.9415C61.0708 32.4717 61.1886 33.0828 61.3359 33.7749C61.5126 34.6438 61.6231 35.2991 61.6672 35.7409H57.3598C57.404 35.2697 57.5144 34.6217 57.6911 33.797C57.8384 33.1638 57.9488 32.5674 58.0225 32.0078C58.0961 31.4482 58.1329 30.7929 58.1329 30.0418V28.4514H52.7652V30.0418C52.7652 30.7781 52.802 31.4114 52.8756 31.9415C52.964 32.4717 53.0818 33.0828 53.2291 33.7749C53.4058 34.6438 53.5162 35.2991 53.5604 35.7409H49.2529C49.2971 35.2991 49.4076 34.6438 49.5843 33.7749C49.7316 33.0828 49.842 32.4717 49.9156 31.9415C50.004 31.4114 50.0482 30.7781 50.0482 30.0418V25.9774C50.0482 25.2263 50.004 24.5857 49.9156 24.0556C49.842 23.5254 49.7316 22.9143 49.5843 22.2221C49.4076 21.3975 49.2971 20.7495 49.2529 20.2783H53.5604C53.5162 20.7495 53.4058 21.3975 53.2291 22.2221C53.0818 22.9143 52.964 23.5254 52.8756 24.0556C52.802 24.5857 52.7652 25.2263 52.7652 25.9774V27.877H58.1329V25.9774C58.1329 25.2116 58.0961 24.5563 58.0225 24.0114C57.9488 23.4665 57.8384 22.8701 57.6911 22.2221C57.5144 21.3386 57.404 20.6906 57.3598 20.2783H61.6672C61.6231 20.7495 61.5126 21.3975 61.3359 22.2221C61.1886 22.9143 61.0708 23.5254 60.9825 24.0556C60.9088 24.5857 60.872 25.2263 60.872 25.9774V30.0418Z" fill="#DD2D38"/>
<path d="M72.9912 21.6036C72.5494 21.5595 71.9088 21.449 71.0694 21.2723C70.4215 21.125 69.8693 21.0146 69.4127 20.9409C68.9562 20.8673 68.4113 20.8231 67.7781 20.8084C67.1007 20.8526 66.6368 21.1103 66.3865 21.5815C66.1361 22.0381 66.0036 22.7744 65.9889 23.7905C66.0036 24.7183 66.1067 25.4178 66.2981 25.889C66.5043 26.3455 66.8798 26.6327 67.4247 26.7505C67.7339 26.7063 68.323 26.5959 69.1918 26.4191C69.9576 26.2277 70.6203 26.1099 71.1799 26.0657V28.0538C70.5467 27.9949 69.9061 27.8844 69.2581 27.7224C68.3156 27.5457 67.6824 27.4353 67.3584 27.3911C66.8283 27.5089 66.4675 27.8108 66.276 28.2967C66.0846 28.768 65.9889 29.4822 65.9889 30.4394V32.0961C65.9889 33.1712 66.1067 33.9443 66.3423 34.4155C66.5926 34.8868 67.0639 35.1445 67.756 35.1887C68.404 35.1739 68.9709 35.1298 69.4569 35.0561C69.9429 34.9825 70.4804 34.8794 71.0694 34.7469C71.9088 34.5702 72.5494 34.4597 72.9912 34.4155V35.7409H62.4766C62.5208 35.2991 62.6313 34.6438 62.808 33.7749C62.9552 33.0828 63.0657 32.4717 63.1393 31.9415C63.2277 31.4114 63.2719 30.7781 63.2719 30.0418V25.9774C63.2719 25.2263 63.2277 24.5857 63.1393 24.0556C63.0657 23.5254 62.9552 22.9143 62.808 22.2221C62.6313 21.3975 62.5208 20.7495 62.4766 20.2783H72.9912V21.6036Z" fill="#DD2D38"/>
<path d="M44.0299 49.1669C44.884 49.5792 45.7087 50.1536 46.5039 50.8899C47.2991 51.6115 47.9471 52.4067 48.4478 53.2755C48.9485 54.1297 49.1988 54.9323 49.1988 55.6833H44.8914C44.8914 53.71 44.6852 52.1563 44.2729 51.0224C43.8753 49.8738 43.1463 49.2553 42.086 49.1669C41.5264 49.2111 41.1141 49.3952 40.849 49.7191C40.5987 50.0431 40.4367 50.5365 40.363 51.1991C40.4367 52.0238 40.5766 52.8632 40.7827 53.7173C40.9595 54.6009 41.0699 55.2562 41.1141 55.6833H36.8066C36.8508 55.2415 36.9613 54.5862 37.138 53.7173C37.2852 53.0252 37.3957 52.4141 37.4693 51.8839C37.5577 51.3538 37.6019 50.7205 37.6019 49.9842V45.9197C37.6019 45.1687 37.5577 44.5281 37.4693 43.998C37.3957 43.4678 37.2852 42.8567 37.138 42.1645C36.9613 41.3399 36.8508 40.6919 36.8066 40.2207H44.052C45.937 40.2354 47.2844 40.5888 48.0944 41.281C48.919 41.9731 49.3314 43.107 49.3314 44.6827C49.3314 46.2732 48.9264 47.4145 48.1165 48.1066C47.3065 48.7987 45.959 49.1522 44.0741 49.1669H44.0299ZM42.329 40.7508C41.5485 40.7508 41.0184 40.9938 40.7386 41.4798C40.4588 41.951 40.3189 42.7462 40.3189 43.8654V45.5221C40.3189 46.6413 40.4588 47.4366 40.7386 47.9078C41.0184 48.379 41.5485 48.6147 42.329 48.6147H43.9857C44.7809 48.6147 45.3479 48.3201 45.6866 47.7311C46.0253 47.1273 46.1947 46.1112 46.1947 44.6827C46.1947 43.2543 46.0253 42.2455 45.6866 41.6565C45.3479 41.0527 44.7809 40.7508 43.9857 40.7508H42.329Z" fill="#DD2D38"/>
<path d="M60.5224 41.546C60.0806 41.5019 59.44 41.3914 58.6006 41.2147C57.9526 41.0674 57.4004 40.957 56.9439 40.8833C56.4873 40.8097 55.9425 40.7655 55.3092 40.7508C54.6318 40.795 54.1679 41.0527 53.9176 41.5239C53.6672 41.9805 53.5347 42.7168 53.52 43.7329C53.5347 44.6606 53.6378 45.3601 53.8292 45.8314C54.0354 46.2879 54.4109 46.5751 54.9558 46.6929C55.2651 46.6487 55.8541 46.5383 56.723 46.3615C57.4887 46.1701 58.1514 46.0523 58.711 46.0081V47.9962C58.0778 47.9373 57.4372 47.8268 56.7892 47.6648C55.8467 47.4881 55.2135 47.3777 54.8895 47.3335C54.3594 47.4513 53.9986 47.7532 53.8071 48.2391C53.6157 48.7104 53.52 49.4246 53.52 50.3818V52.0385C53.52 53.1136 53.6378 53.8867 53.8734 54.3579C54.1238 54.8292 54.595 55.0869 55.2871 55.1311C55.9351 55.1163 56.5021 55.0722 56.988 54.9985C57.474 54.9249 58.0115 54.8218 58.6006 54.6893C59.44 54.5126 60.0806 54.4021 60.5224 54.3579V55.6833H50.0078C50.0519 55.2415 50.1624 54.5862 50.3391 53.7173C50.4864 53.0252 50.5968 52.4141 50.6704 51.8839C50.7588 51.3538 50.803 50.7205 50.803 49.9842V45.9197C50.803 45.1687 50.7588 44.5281 50.6704 43.998C50.5968 43.4678 50.4864 42.8567 50.3391 42.1645C50.1624 41.3399 50.0519 40.6919 50.0078 40.2207H60.5224V41.546Z" fill="#DD2D38"/>
<path d="M74.0092 44.6825C74.0092 46.273 73.6042 47.4143 72.7943 48.1064C71.9843 48.7985 70.6368 49.152 68.7519 49.1667H67.0068C66.3588 49.1667 65.8876 49.3287 65.5931 49.6527C65.2986 49.9767 65.1145 50.4921 65.0408 51.1989C65.1145 52.0236 65.2544 52.863 65.4605 53.7171C65.6373 54.6007 65.7477 55.256 65.7919 55.6831H61.4844C61.5286 55.2413 61.6391 54.586 61.8158 53.7171C61.963 53.025 62.0735 52.4139 62.1471 51.8837C62.2355 51.3536 62.2797 50.7203 62.2797 49.984V45.9195C62.2797 45.1685 62.2355 44.5279 62.1471 43.9978C62.0735 43.4676 61.963 42.8565 61.8158 42.1643C61.6391 41.3397 61.5286 40.6917 61.4844 40.2205H68.7298C70.6148 40.2352 71.9622 40.5886 72.7722 41.2808C73.5968 41.9729 74.0092 43.1068 74.0092 44.6825ZM68.6635 48.6145C69.4587 48.6145 70.0257 48.3199 70.3644 47.7309C70.7031 47.1271 70.8725 46.111 70.8725 44.6825C70.8725 43.2541 70.7031 42.2453 70.3644 41.6563C70.0257 41.0525 69.4587 40.7506 68.6635 40.7506H67.0068C66.2263 40.7506 65.6962 40.9936 65.4164 41.4796C65.1366 41.9508 64.9967 42.746 64.9967 43.8652V45.5219C64.9967 46.6411 65.1366 47.4364 65.4164 47.9076C65.6962 48.3788 66.2263 48.6145 67.0068 48.6145H68.6635Z" fill="#DD2D38"/>
<path d="M87.1937 40.2205C87.1495 40.6917 87.039 41.3397 86.8623 42.1643C86.7151 42.8565 86.5972 43.4676 86.5089 43.9978C86.4353 44.5279 86.3984 45.1685 86.3984 45.9195V51.3757C86.3837 52.8483 85.8977 53.9675 84.9405 54.7333C83.9981 55.4843 82.6064 55.8598 80.7656 55.8598C78.969 55.8598 77.6068 55.4843 76.6791 54.7333C75.766 53.9822 75.3022 52.8704 75.2874 51.3977V45.9195C75.2874 45.1685 75.2433 44.5279 75.1549 43.9978C75.0813 43.4676 74.9708 42.8565 74.8235 42.1643C74.6468 41.3397 74.5364 40.6917 74.4922 40.2205H78.7776C78.7334 40.6328 78.6229 41.2808 78.4462 42.1643C78.299 42.8123 78.1885 43.4087 78.1149 43.9536C78.0413 44.4985 78.0044 45.1538 78.0044 45.9195V51.3315C78.0044 52.5538 78.2327 53.4815 78.6892 54.1147C79.1605 54.7333 79.8526 55.0425 80.7656 55.0425C82.6948 55.0425 83.6593 53.8055 83.6593 51.3315V45.9195C83.6593 45.1538 83.6225 44.4985 83.5489 43.9536C83.4753 43.4087 83.3648 42.8123 83.2176 42.1643C83.0408 41.2808 82.9304 40.6328 82.8862 40.2205H87.1937Z" fill="#DD2D38"/>
<path d="M100.607 51.1991C100.607 52.7749 100.202 53.9088 99.3918 54.6009C98.5966 55.2931 97.2786 55.6538 95.4378 55.6833H88.082C88.1262 55.2415 88.2366 54.5862 88.4134 53.7173C88.5606 53.0252 88.6711 52.4141 88.7447 51.8839C88.8331 51.3538 88.8772 50.7205 88.8772 49.9842V45.9197C88.8772 45.1687 88.8331 44.5281 88.7447 43.998C88.6711 43.4678 88.5606 42.8567 88.4134 42.1645C88.2366 41.3399 88.1262 40.6919 88.082 40.2207H94.3554C96.2109 40.2354 97.5437 40.5152 98.3536 41.0601C99.1636 41.6049 99.5686 42.5032 99.5686 43.755C99.5686 44.5944 99.3918 45.2718 99.0384 45.7872C98.685 46.3026 98.118 46.6782 97.3375 46.9138C98.4862 47.1347 99.3182 47.5912 99.8336 48.2833C100.349 48.9607 100.607 49.9327 100.607 51.1991ZM93.6044 40.7508C92.8386 40.7508 92.3158 40.9791 92.036 41.4356C91.7562 41.8921 91.609 42.6579 91.5942 43.7329C91.609 44.8226 91.7489 45.5958 92.0139 46.0523C92.2937 46.5088 92.8239 46.7371 93.6044 46.7371H94.245C95.0402 46.7371 95.5998 46.5235 95.9238 46.0965C96.2625 45.6547 96.4318 44.8742 96.4318 43.755C96.4318 42.6358 96.2625 41.8553 95.9238 41.4135C95.5998 40.9717 95.0402 40.7508 94.245 40.7508H93.6044ZM95.2611 55.1311C96.0563 55.1311 96.6233 54.8365 96.962 54.2475C97.3007 53.6437 97.47 52.6276 97.47 51.1991C97.47 49.7707 97.3007 48.7619 96.962 48.1729C96.6233 47.5691 96.0563 47.2672 95.2611 47.2672H93.6044C92.8239 47.2672 92.2937 47.5102 92.0139 47.9962C91.7341 48.4674 91.5942 49.2626 91.5942 50.3818V52.0385C91.5942 53.1577 91.7268 53.953 91.9919 54.4242C92.2717 54.8954 92.8018 55.1311 93.5823 55.1311H95.2611Z" fill="#DD2D38"/>
<path d="M106.564 55.1309C107.212 55.1161 107.779 55.072 108.265 54.9983C108.75 54.9247 109.288 54.8216 109.877 54.6891C110.716 54.5124 111.357 54.4019 111.799 54.3577V55.6831H101.284C101.328 55.2413 101.439 54.586 101.616 53.7171C101.763 53.025 101.873 52.4139 101.947 51.8837C102.035 51.3536 102.079 50.7203 102.079 49.984V45.9195C102.079 45.1685 102.035 44.5279 101.947 43.9978C101.873 43.4676 101.763 42.8565 101.616 42.1643C101.439 41.3397 101.328 40.6917 101.284 40.2205H105.592C105.548 40.6917 105.437 41.3397 105.26 42.1643C105.113 42.8565 104.995 43.4676 104.907 43.9978C104.833 44.5279 104.796 45.1685 104.796 45.9195V52.0383C104.796 53.1134 104.914 53.8865 105.15 54.3577C105.4 54.829 105.871 55.0867 106.564 55.1309Z" fill="#DD2D38"/>
<path d="M116.078 49.9842C116.078 50.7205 116.115 51.3538 116.189 51.8839C116.277 52.4141 116.395 53.0252 116.542 53.7173C116.719 54.5862 116.83 55.2415 116.874 55.6833H112.566C112.61 55.2415 112.721 54.5862 112.898 53.7173C113.045 53.0252 113.155 52.4141 113.229 51.8839C113.317 51.3538 113.361 50.7205 113.361 49.9842V45.9197C113.361 45.1687 113.317 44.5281 113.229 43.998C113.155 43.4678 113.045 42.8567 112.898 42.1645C112.721 41.3399 112.61 40.6919 112.566 40.2207H116.874C116.83 40.6919 116.719 41.3399 116.542 42.1645C116.395 42.8567 116.277 43.4678 116.189 43.998C116.115 44.5281 116.078 45.1687 116.078 45.9197V49.9842Z" fill="#DD2D38"/>
<path d="M130 50.5587C129.956 51.5601 129.713 52.4657 129.271 53.2757C128.844 54.0857 128.226 54.7337 127.416 55.2196C126.62 55.6909 125.656 55.9265 124.522 55.9265C122.342 55.9265 120.634 55.2785 119.397 53.9826C118.16 52.672 117.542 50.6839 117.542 48.0184C117.542 45.2499 118.109 43.2397 119.242 41.9879C120.391 40.7362 122.151 40.1104 124.522 40.1104C125.965 40.1104 127.106 40.368 127.946 40.8834C128.8 41.3841 129.47 42.1279 129.956 43.1146L128.697 45.1688C128.329 44.8891 128.027 44.5725 127.791 44.2191C127.57 43.8656 127.335 43.4165 127.084 42.8716C126.834 42.3562 126.613 41.9585 126.422 41.6787C126.245 41.3989 126.002 41.1633 125.693 40.9719C125.383 40.7805 124.993 40.6847 124.522 40.6847C123.358 40.6847 122.453 41.2223 121.805 42.2973C121.172 43.3576 120.855 44.9186 120.855 46.9802C120.855 49.2481 121.245 51.0079 122.026 52.2596C122.821 53.5114 123.962 54.1371 125.45 54.1371C126.156 54.1371 126.782 53.9752 127.327 53.6513C127.887 53.3126 128.321 52.8708 128.631 52.3259C128.954 51.781 129.139 51.192 129.183 50.5587H130Z" fill="#DD2D38"/>
<path d="M42.991 75.8679C41.43 75.8679 40.1709 75.6028 39.2137 75.0727C38.2712 74.5278 37.5791 73.681 37.1373 72.5324C36.6955 71.3837 36.4746 69.8595 36.4746 67.9598C36.4746 66.0601 36.6955 64.536 37.1373 63.3873C37.5791 62.2387 38.2712 61.3993 39.2137 60.8691C40.1709 60.3242 41.43 60.0518 42.991 60.0518C44.552 60.0518 45.8037 60.3242 46.7462 60.8691C47.6887 61.3993 48.3808 62.2387 48.8226 63.3873C49.2644 64.536 49.4853 66.0601 49.4853 67.9598C49.4853 69.8595 49.2644 71.3837 48.8226 72.5324C48.3808 73.681 47.6887 74.5278 46.7462 75.0727C45.8037 75.6028 44.552 75.8679 42.991 75.8679ZM42.991 75.3156C43.9924 75.3156 44.714 74.7487 45.1558 73.6148C45.5976 72.4661 45.8184 70.5811 45.8184 67.9598C45.8184 65.3533 45.5976 63.483 45.1558 62.3491C44.714 61.2005 43.9924 60.6261 42.991 60.6261C42.3136 60.6261 41.7687 60.8765 41.3564 61.3772C40.944 61.8631 40.6421 62.6436 40.4507 63.7187C40.2593 64.7937 40.1635 66.2074 40.1635 67.9598C40.1635 69.727 40.2593 71.1481 40.4507 72.2231C40.6421 73.2834 40.944 74.0639 41.3564 74.5646C41.7687 75.0653 42.3136 75.3156 42.991 75.3156Z" fill="#DD2D38"/>
<path d="M60.6738 61.4874C60.232 61.4432 59.5914 61.3328 58.752 61.1561C58.104 61.0088 57.5518 60.8984 57.0953 60.8247C56.6387 60.7511 56.0939 60.7069 55.4606 60.6922C54.7685 60.7364 54.2973 61.0015 54.0469 61.4874C53.7966 61.9587 53.6714 62.7171 53.6714 63.7626C53.6714 64.7199 53.7671 65.4341 53.9586 65.9053C54.1647 66.3766 54.5402 66.6711 55.0851 66.7889C55.5711 66.73 56.1749 66.6122 56.8965 66.4355C57.78 66.2588 58.4354 66.1483 58.8624 66.1041V68.1143C58.3028 68.0701 57.6401 67.9523 56.8744 67.7608C56.0055 67.5841 55.4165 67.4737 55.1072 67.4295C54.5771 67.5326 54.2089 67.805 54.0027 68.2468C53.7966 68.6886 53.6861 69.3439 53.6714 70.2128C53.6861 70.8902 53.7303 71.494 53.8039 72.0241C53.8776 72.5395 53.988 73.0918 54.1353 73.6808C54.312 74.5644 54.4224 75.2124 54.4666 75.6247H50.1592C50.2033 75.1829 50.3138 74.5276 50.4905 73.6587C50.6378 72.9666 50.7482 72.3555 50.8218 71.8253C50.9102 71.2952 50.9544 70.6619 50.9544 69.9256V65.8611C50.9544 65.1101 50.9102 64.4695 50.8218 63.9394C50.7482 63.4092 50.6378 62.7981 50.4905 62.1059C50.3138 61.2813 50.2033 60.6333 50.1592 60.1621H60.6738V61.4874Z" fill="#DD2D38"/>
<path d="M80.4628 63.807L75.6031 61.4214V69.9258C75.6031 70.6621 75.6399 71.2954 75.7136 71.8255C75.8019 72.3557 75.9197 72.9668 76.067 73.6589C76.2437 74.5278 76.3542 75.1831 76.3983 75.6249H72.0909C72.1351 75.1831 72.2455 74.5278 72.4222 73.6589C72.5695 72.9668 72.6799 72.3557 72.7536 71.8255C72.8419 71.2954 72.8861 70.6621 72.8861 69.9258V61.3551L68.0264 63.807V60.1843H80.4628V63.807Z" fill="#DD2D38"/>
<path d="M86.8895 75.8679C85.3285 75.8679 84.0694 75.6028 83.1122 75.0727C82.1697 74.5278 81.4776 73.681 81.0358 72.5324C80.594 71.3837 80.373 69.8595 80.373 67.9598C80.373 66.0601 80.594 64.536 81.0358 63.3873C81.4776 62.2387 82.1697 61.3993 83.1122 60.8691C84.0694 60.3242 85.3285 60.0518 86.8895 60.0518C88.4504 60.0518 89.7022 60.3242 90.6446 60.8691C91.5871 61.3993 92.2793 62.2387 92.7211 63.3873C93.1628 64.536 93.3838 66.0601 93.3838 67.9598C93.3838 69.8595 93.1628 71.3837 92.7211 72.5324C92.2793 73.681 91.5871 74.5278 90.6446 75.0727C89.7022 75.6028 88.4504 75.8679 86.8895 75.8679ZM86.8895 75.3156C87.8909 75.3156 88.6125 74.7487 89.0543 73.6148C89.4961 72.4661 89.7169 70.5811 89.7169 67.9598C89.7169 65.3533 89.4961 63.483 89.0543 62.3491C88.6125 61.2005 87.8909 60.6261 86.8895 60.6261C86.212 60.6261 85.6672 60.8765 85.2549 61.3772C84.8426 61.8631 84.5407 62.6436 84.3492 63.7187C84.1578 64.7937 84.062 66.2074 84.062 67.9598C84.062 69.727 84.1578 71.1481 84.3492 72.2231C84.5407 73.2834 84.8426 74.0639 85.2549 74.5646C85.6672 75.0653 86.212 75.3156 86.8895 75.3156Z" fill="#DD2D38"/>
<path d="M104.506 60.1621C104.506 62.1943 104.175 63.8068 103.512 64.9997C102.849 66.1925 101.87 66.9362 100.574 67.2307V70.5883C100.589 71.1773 100.633 71.7001 100.707 72.1566C100.78 72.6132 100.883 73.1212 101.016 73.6808C101.193 74.5644 101.303 75.2197 101.347 75.6468H97.0399C97.0841 75.2344 97.1945 74.5865 97.3712 73.7029C97.5185 73.0697 97.6289 72.4733 97.7026 71.9137C97.7762 71.3541 97.813 70.6914 97.813 69.9256H97.8351V67.2528C96.5245 66.9583 95.5304 66.2146 94.853 65.0217C94.1756 63.8289 93.8369 62.209 93.8369 60.1621H96.8411C96.7969 62.3857 96.9662 64.0645 97.3491 65.1985C97.7467 66.3324 98.3505 66.8994 99.1605 66.8994C99.9704 66.8994 100.574 66.3324 100.972 65.1985C101.369 64.0645 101.546 62.3857 101.502 60.1621H104.506Z" fill="#DD2D38"/>
<path d="M111.655 75.8681C110.006 75.8681 108.518 75.6104 107.193 75.0949C105.867 74.5795 104.977 73.8359 104.52 72.8639L107.193 70.4341C107.325 71.9067 107.797 73.0922 108.607 73.9905C109.417 74.8741 110.44 75.3158 111.677 75.3158C112.59 75.3158 113.356 75.0802 113.974 74.609C114.593 74.1377 114.902 73.5487 114.902 72.8418C114.902 72.3411 114.718 71.8993 114.35 71.5165C113.982 71.1188 113.525 70.7728 112.98 70.4782C112.435 70.1837 111.692 69.8303 110.749 69.418L109.998 69.0866C108.496 68.4092 107.318 67.7023 106.464 66.966C105.624 66.215 105.205 65.2578 105.205 64.0944C105.205 62.769 105.742 61.7603 106.817 61.0681C107.907 60.3613 109.299 60.0078 110.992 60.0078C112.406 60.0078 113.672 60.1404 114.792 60.4054C115.911 60.6705 116.706 60.965 117.177 61.289L115.764 64.1386C115.336 63.7851 114.865 63.2697 114.35 62.5923C113.982 62.1211 113.665 61.7529 113.4 61.4878C113.135 61.2228 112.804 61.0019 112.406 60.8251C112.008 60.6484 111.537 60.5601 110.992 60.5601C110.05 60.5601 109.343 60.7662 108.872 61.1786C108.4 61.5909 108.165 62.1137 108.165 62.7469C108.165 63.3213 108.349 63.8293 108.717 64.2711C109.085 64.7129 109.549 65.0958 110.109 65.4198C110.683 65.729 111.441 66.0898 112.384 66.5021C113.621 67.0323 114.6 67.4888 115.322 67.8717C116.043 68.2546 116.662 68.7626 117.177 69.3959C117.693 70.0144 117.95 70.7654 117.95 71.649C117.936 73.0185 117.361 74.0641 116.227 74.7857C115.094 75.5073 113.569 75.8681 111.655 75.8681Z" fill="#DD2D38"/>
<path d="M75.1064 21.065V36.3546C79.6667 32.0104 91.589 24.8656 102.796 31.0396C114.003 37.2137 125.27 31.8405 129.257 31.0396C116.805 31.0396 112.166 28.8695 101.24 21.065C92.9007 15.1088 81.1686 15.9442 75.1064 21.065Z" fill="#FF9900"/>
<path d="M25.4369 73.7649C25.4369 76.9479 20.5358 79.5265 14.488 79.5265C8.44163 79.5265 3.53906 76.9479 3.53906 73.7649C3.53906 70.5835 8.44163 68.0049 14.488 68.0049C20.5358 68.0049 25.4369 70.5835 25.4369 73.7649Z" fill="#E8B87E"/>
<path d="M25.4369 41.5325H3.53906V73.9544H25.4369V41.5325Z" fill="#E8B87E"/>
<path d="M25.4369 41.5326C25.4369 44.714 20.5358 47.2942 14.488 47.2942C8.44163 47.2942 3.53906 44.714 3.53906 41.5326C3.53906 38.3511 8.44163 35.7725 14.488 35.7725C20.5358 35.7725 25.4369 38.3511 25.4369 41.5326Z" fill="#FFDAB6"/>
<path d="M27.0474 42.568C27.0474 46.1171 21.5805 48.9942 14.8364 48.9942C8.09239 48.9942 2.62402 46.1171 2.62402 42.568C2.62402 39.0203 8.09239 36.1433 14.8364 36.1433C21.5805 36.1433 27.0474 39.0203 27.0474 42.568Z" fill="#D09750"/>
<path fill-rule="evenodd" clip-rule="evenodd" d="M8.75236 63.6323C8.71747 63.6323 8.6841 63.6247 8.65376 63.6067L6.75007 62.5427C6.68636 62.508 6.64844 62.4417 6.64844 62.3709V61.4184C6.64844 61.3475 6.68484 61.2827 6.74855 61.2466C6.81074 61.2104 6.88507 61.2104 6.94726 61.2466L8.85095 62.3287C8.91314 62.3633 8.95107 62.4296 8.95107 62.499V63.4349C8.95107 63.5057 8.91466 63.5705 8.85247 63.6052C8.82061 63.6232 8.78573 63.6323 8.75236 63.6323ZM6.85322 61.4093L6.83653 62.3709L6.8426 62.3799L8.74629 63.4439L8.76297 62.499L6.85322 61.4093Z" fill="#D09750"/>
<path fill-rule="evenodd" clip-rule="evenodd" d="M7.48087 75.1599C7.44749 75.1599 7.41412 75.1509 7.38227 75.1343L5.47858 74.0688C5.41638 74.0341 5.37695 73.9693 5.37695 73.897V72.946C5.37695 72.8737 5.41487 72.8104 5.47706 72.7742C5.53925 72.738 5.6151 72.738 5.67729 72.7742L7.58098 73.8548C7.64166 73.8909 7.6811 73.9558 7.6811 74.0266V74.9625C7.6811 75.0333 7.64317 75.0966 7.58098 75.1328C7.55064 75.1509 7.51575 75.1599 7.48087 75.1599ZM5.58324 72.9355L5.56656 73.897L5.57111 73.906L7.4748 74.9715L7.49148 74.0266L5.58324 72.9355Z" fill="#D09750"/>
<path fill-rule="evenodd" clip-rule="evenodd" d="M7.96525 62.0156C7.93188 62.0156 7.89699 62.0065 7.86665 61.9884L5.96296 60.9245C5.90077 60.8898 5.86133 60.8235 5.86133 60.7526V59.8002C5.86133 59.7293 5.89925 59.666 5.96145 59.6299C6.02364 59.5937 6.09797 59.5937 6.16168 59.6284L8.06536 60.7104C8.12604 60.7451 8.16548 60.8114 8.16548 60.8823V61.8166C8.16548 61.8875 8.12756 61.9523 8.06536 61.9869C8.03351 62.0065 8.00014 62.0156 7.96525 62.0156ZM6.05549 60.7617L7.95918 61.8272L7.97587 60.8823L6.06763 59.7911L6.05094 60.7526L6.00999 60.8431L6.05549 60.7617Z" fill="#D09750"/>
<path fill-rule="evenodd" clip-rule="evenodd" d="M7.13171 50.3796C7.09833 50.3796 7.06496 50.3705 7.03311 50.354L5.12942 49.2885C5.06723 49.2538 5.0293 49.1875 5.0293 49.1167V48.1643C5.0293 48.0935 5.06571 48.0301 5.1279 47.9939C5.19009 47.9577 5.26594 47.9577 5.32813 47.9939L7.23182 49.0745C7.29401 49.1091 7.33193 49.1755 7.33193 49.2464V50.1807C7.33193 50.253 7.29553 50.3163 7.23334 50.3525C7.20148 50.3705 7.16659 50.3796 7.13171 50.3796ZM5.22346 49.1257L7.12716 50.1912L7.14384 49.2464L5.23408 48.1551L5.2174 49.1167L5.17644 49.2072L5.22346 49.1257Z" fill="#D09750"/>
<path fill-rule="evenodd" clip-rule="evenodd" d="M21.6216 59.0885C21.5594 59.0524 21.5215 58.9891 21.5215 58.9167V57.9823C21.5215 57.9115 21.5594 57.8467 21.6216 57.8105L23.5253 56.73C23.5875 56.6938 23.6618 56.6938 23.7255 56.73C23.7877 56.7646 23.8256 56.8294 23.8256 56.9003V57.8527C23.8256 57.9236 23.7862 57.9899 23.724 58.0245L21.8203 59.09C21.7884 59.1066 21.7551 59.1157 21.7217 59.1157C21.6868 59.1157 21.6519 59.1066 21.6216 59.0885ZM21.7111 57.9823L21.7263 58.9273L23.6299 57.8618L23.636 57.8527L23.6193 56.8912L21.7111 57.9823Z" fill="#D09750"/>
<path fill-rule="evenodd" clip-rule="evenodd" d="M22.4072 57.4701C22.345 57.4339 22.3086 57.3706 22.3086 57.2998V56.364C22.3086 56.2931 22.3465 56.2282 22.4087 56.1921L24.3124 55.1116C24.3746 55.0754 24.4504 55.0769 24.5126 55.1116C24.5748 55.1478 24.6112 55.2111 24.6112 55.2834V56.2344C24.6112 56.3052 24.5733 56.3714 24.5096 56.4061L22.6059 57.4717C22.5756 57.4883 22.5422 57.4973 22.5073 57.4973C22.4739 57.4973 22.439 57.4882 22.4072 57.4701ZM24.4641 56.3263L24.4231 56.2344L24.4064 55.2727L22.4967 56.364L22.5134 57.3089L24.4171 56.2448L24.4641 56.3263Z" fill="#D09750"/>
<path fill-rule="evenodd" clip-rule="evenodd" d="M21.1318 52.3219C21.0697 52.2873 21.0332 52.2225 21.0332 52.1516V51.2172C21.0332 51.1464 21.0712 51.0801 21.1334 51.0454L23.0371 49.9633C23.0992 49.9287 23.1751 49.9287 23.2358 49.9648C23.2995 50.001 23.3359 50.0643 23.3359 50.1351V51.0876C23.3359 51.1584 23.298 51.2248 23.2342 51.2594L21.3306 52.3234C21.3002 52.3415 21.2668 52.3506 21.232 52.3506C21.1986 52.3506 21.1637 52.3415 21.1318 52.3219ZM23.1887 51.178L23.1478 51.0876L23.1311 50.1261L21.2213 51.2172L21.238 52.1622L23.1417 51.0967L23.1887 51.178Z" fill="#D09750"/>
<path fill-rule="evenodd" clip-rule="evenodd" d="M21.1318 72.5223C21.0697 72.4861 21.0332 72.4228 21.0332 72.352V71.4161C21.0332 71.3452 21.0712 71.2804 21.1334 71.2458L23.0371 70.1637C23.0992 70.129 23.1751 70.129 23.2358 70.1637C23.2995 70.1999 23.3359 70.2647 23.3359 70.3355V71.2865C23.3359 71.3573 23.298 71.4236 23.2342 71.4583L21.3306 72.5238C21.3002 72.5404 21.2668 72.5494 21.232 72.5494C21.1986 72.5494 21.1637 72.5404 21.1318 72.5223ZM23.1887 71.3784L23.1478 71.2865L23.1311 70.325L21.2213 71.4161L21.238 72.361L23.1417 71.297L23.1887 71.3784Z" fill="#D09750"/>
<path fill-rule="evenodd" clip-rule="evenodd" d="M16.1771 57.0919H13.4937C13.3375 57.0919 13.21 56.9653 13.21 56.8086V55.9435C13.21 55.7868 13.3375 55.6602 13.4937 55.6602H16.1771C16.3333 55.6602 16.4607 55.7868 16.4607 55.9435V56.8086C16.4607 56.9653 16.3333 57.0919 16.1771 57.0919ZM13.4937 55.8862C13.4634 55.8862 13.4376 55.9119 13.4376 55.9435V56.8086C13.4376 56.8402 13.4634 56.8658 13.4937 56.8658H16.1771C16.2089 56.8658 16.2332 56.8402 16.2332 56.8086V55.9435C16.2332 55.9119 16.2089 55.8862 16.1771 55.8862H13.4937Z" fill="#D09750"/>
<path fill-rule="evenodd" clip-rule="evenodd" d="M15.301 65.9215H12.6176C12.4614 65.9215 12.334 65.7934 12.334 65.6382V64.7716C12.334 64.6164 12.4614 64.4883 12.6176 64.4883H15.301C15.4573 64.4883 15.5847 64.6164 15.5847 64.7716V65.6382C15.5847 65.7934 15.4573 65.9215 15.301 65.9215ZM12.6176 64.7143C12.5858 64.7143 12.5615 64.74 12.5615 64.7716V65.6382C12.5615 65.6698 12.5858 65.6955 12.6176 65.6955H15.301C15.3329 65.6955 15.3571 65.6698 15.3571 65.6382V64.7716C15.3571 64.74 15.3329 64.7143 15.301 64.7143H12.6176Z" fill="#D09750"/>
<path fill-rule="evenodd" clip-rule="evenodd" d="M17.0637 76.4035H14.3819C14.2241 76.4035 14.0967 76.2769 14.0967 76.1201V75.2551C14.0967 75.0983 14.2241 74.9717 14.3819 74.9717H17.0637C17.2215 74.9717 17.3489 75.0983 17.3489 75.2551V76.1201C17.3489 76.2769 17.2215 76.4035 17.0637 76.4035ZM14.3819 75.1978C14.35 75.1978 14.3242 75.2234 14.3242 75.2551V76.1201C14.3242 76.1518 14.35 76.1774 14.3819 76.1774H17.0637C17.0956 76.1774 17.1213 76.1518 17.1213 76.1201V75.2551C17.1213 75.2234 17.0956 75.1978 17.0637 75.1978H14.3819Z" fill="#D09750"/>
<path fill-rule="evenodd" clip-rule="evenodd" d="M17.5764 55.8858H14.893C14.7368 55.8858 14.6094 55.7592 14.6094 55.6025V54.7374C14.6094 54.5807 14.7368 54.4541 14.893 54.4541H17.5764C17.7326 54.4541 17.8601 54.5807 17.8601 54.7374V55.6025C17.8601 55.7592 17.7326 55.8858 17.5764 55.8858ZM14.893 54.6801C14.8612 54.6801 14.8369 54.7057 14.8369 54.7374V55.6025C14.8369 55.6341 14.8612 55.6597 14.893 55.6597H17.5764C17.6083 55.6597 17.6325 55.6341 17.6325 55.6025V54.7374C17.6325 54.7057 17.6083 54.6801 17.5764 54.6801H14.893Z" fill="#D09750"/>
<path fill-rule="evenodd" clip-rule="evenodd" d="M16.8353 64.7149H14.1534C13.9957 64.7149 13.8682 64.5883 13.8682 64.4331V63.5665C13.8682 63.4113 13.9957 63.2832 14.1534 63.2832H16.8353C16.993 63.2832 17.1204 63.4113 17.1204 63.5665V64.4331C17.1204 64.5883 16.993 64.7149 16.8353 64.7149ZM14.1534 63.5092C14.1216 63.5092 14.0958 63.5349 14.0958 63.5665V64.4331C14.0958 64.4632 14.1216 64.4888 14.1534 64.4888H16.8353C16.8671 64.4888 16.8929 64.4632 16.8929 64.4331V63.5665C16.8929 63.5349 16.8671 63.5092 16.8353 63.5092H14.1534Z" fill="#D09750"/>
<path d="M27.0474 40.0645H2.62402V42.6989H27.0474V40.0645Z" fill="#BC7F3C"/>
<path d="M27.0474 40.0643C27.0474 43.612 21.5805 46.489 14.8364 46.489C8.09239 46.489 2.62402 43.612 2.62402 40.0643C2.62402 36.5151 8.09239 33.6396 14.8364 33.6396C21.5805 33.6396 27.0474 36.5151 27.0474 40.0643Z" fill="#E8B87E"/>
<path d="M27.7803 39.9874C27.7803 43.8154 21.8842 46.9185 14.6092 46.9185C7.33417 46.9185 1.43652 43.8154 1.43652 39.9874C1.43652 36.1594 7.33417 33.0564 14.6092 33.0564C21.8842 33.0564 27.7803 36.1594 27.7803 39.9874Z" fill="#BC7F3C"/>
<path d="M27.7803 34.6553H1.43652V39.9873H27.7803V34.6553Z" fill="#BC7F3C"/>
<path d="M29.6184 34.3161C29.6184 38.6128 23.0002 42.0942 14.8363 42.0942C6.67091 42.0942 0.0527344 38.6128 0.0527344 34.3161C0.0527344 30.021 6.67091 26.5381 14.8363 26.5381C23.0002 26.5381 29.6184 30.021 29.6184 34.3161Z" fill="#A5692D"/>
<path d="M29.6184 32.1602H0.0527344V34.3168H29.6184V32.1602Z" fill="#A5692D"/>
<path d="M29.6184 32.1599C29.6184 36.4565 23.0002 39.9379 14.8363 39.9379C6.67091 39.9379 0.0527344 36.4565 0.0527344 32.1599C0.0527344 27.8647 6.67091 24.3818 14.8363 24.3818C23.0002 24.3818 29.6184 27.8647 29.6184 32.1599Z" fill="#E8B87E"/>
<path d="M7.06543 56.6817C7.06543 56.6847 7.06543 56.6893 7.06543 56.6953L8.53226 57.5332C8.53529 56.9967 8.53681 56.4331 8.53681 55.8408L7.06543 56.6817Z" fill="#D09750"/>
<path d="M8.50734 53.5799C8.48458 53.3433 8.44665 53.0826 8.37991 52.837C8.27221 52.4391 8.09323 52.0759 7.7944 51.9086C7.39091 51.684 7.20737 52.097 7.12697 52.5702C7.09967 52.7254 7.08297 52.8882 7.07387 53.0359C7.05567 53.3343 7.06478 56.5353 7.06478 56.6815L8.53616 55.8406C8.53616 54.8806 8.53009 53.8226 8.50734 53.5799Z" fill="#A5692D"/>
<path d="M7.06543 72.9386C7.06543 72.9401 7.06543 72.9446 7.06543 72.9522L8.53226 73.7901C8.53529 73.2536 8.53681 72.6899 8.53681 72.0977L7.06543 72.9386Z" fill="#D09750"/>
<path d="M8.50734 69.8368C8.48458 69.6002 8.44665 69.3395 8.37991 69.0923C8.27221 68.6945 8.09323 68.3328 7.7944 68.1655C7.39091 67.9409 7.20737 68.3539 7.12697 68.8271C7.09967 68.9823 7.08297 69.1451 7.07387 69.2928C7.05567 69.5912 7.06478 72.7922 7.06478 72.9384L8.53616 72.0975C8.53616 71.1374 8.53009 70.0795 8.50734 69.8368Z" fill="#A5692D"/>
<path d="M22.2551 65.0679C22.2551 65.0709 22.2551 65.0754 22.2551 65.083L20.7898 65.9209C20.7867 65.3829 20.7852 64.8192 20.7852 64.2285L22.2551 65.0679Z" fill="#BC7F3C"/>
<path d="M20.8125 61.9683C20.8353 61.7301 20.8747 61.4709 20.94 61.2238C21.0477 60.8259 21.2266 60.4642 21.5255 60.2969C21.929 60.0708 22.1125 60.4853 22.1944 60.957C22.2202 61.1137 22.2369 61.275 22.246 61.4242C22.2642 61.7211 22.2566 64.9236 22.2551 65.0683L20.7852 64.2289C20.7852 63.2674 20.7898 62.2109 20.8125 61.9683Z" fill="#93551C"/>
<path d="M3.94531 42.6945L5.69428 43.6937C5.73068 43.014 5.67152 42.3826 5.51377 41.8008L3.94531 42.6945Z" fill="#D09750"/>
<path d="M4.8162 40.694C4.17 40.3323 3.88028 41 3.94551 42.6939L5.51397 41.8002C5.38503 41.3255 5.17267 40.893 4.8162 40.694Z" fill="#93551C"/>
<path d="M24.7007 42.6945L22.9518 43.6937C22.9154 43.014 22.9745 42.3826 23.1323 41.8008L24.7007 42.6945Z" fill="#D09750"/>
<path d="M23.8296 40.6949C24.4758 40.3332 24.7655 41.0009 24.7003 42.6948L23.1318 41.8011C23.2607 41.3264 23.4731 40.8939 23.8296 40.6949Z" fill="#93551C"/>
<path d="M12.8521 45.5067H15.5067C15.5825 43.9996 15.1396 43.2461 14.1794 43.2461C13.2192 43.2461 12.7763 43.9996 12.8521 45.5067Z" fill="#D09750"/>
<path d="M1.43652 29.1349L7.51012 37.0561L14.8125 12.0928L1.43652 29.1349Z" fill="#FF9D45"/>
<path d="M28.2506 28.9239L22.1133 37.0561L14.8125 12.0928L28.2506 28.9239Z" fill="#DB6D00"/>
<path d="M14.812 12.0928L7.50977 37.0561H22.1128L14.812 12.0928Z" fill="#F27E00"/>
<path d="M2.61947 27.4873C1.4545 28.6433 0.685446 29.7736 0.312292 30.8783C-0.247438 32.5346 -0.204965 35.1283 3.59635 37.3301C4.83412 38.0475 6.00212 38.5734 7.10187 38.908L8.17734 34.0311C6.11741 33.4283 4.53985 32.4502 3.44466 31.0968C2.68622 30.1594 2.27059 28.8784 2.61947 27.4873Z" fill="#FF8C1A"/>
<path d="M27.0745 27.4873C28.1924 28.6433 28.9372 29.7736 29.3104 30.8783C29.8701 32.5346 29.8276 35.1283 26.0278 37.3301C24.7901 38.0475 23.6206 38.5734 22.5208 38.908L21.4453 34.0311C23.5053 33.4283 25.0828 32.4502 26.178 31.0968C26.9365 30.1594 27.4234 28.8784 27.0745 27.4873Z" fill="#C15C00"/>
<path d="M8.17704 34.0322L7.10156 38.9091C8.61845 39.6732 11.1896 40.0545 14.8165 40.0545C18.3493 40.0545 20.9174 39.6732 22.5207 38.9091L21.4453 34.0322C20.0391 34.7104 17.829 35.0495 14.818 35.0495C11.8055 35.0495 9.59229 34.7104 8.17704 34.0322Z" fill="#DB6D00"/>
<path d="M14.8472 3.49121H14.8457C14.735 3.49121 14.6455 3.58163 14.6455 3.69165V12.2564C14.6455 12.3664 14.735 12.4568 14.8457 12.4568H14.8472C14.958 12.4568 15.049 12.3664 15.049 12.2564V3.69165C15.049 3.58163 14.958 3.49121 14.8472 3.49121Z" fill="#F27E00"/>
<path d="M14.8472 0.0107422H14.8457C14.735 0.0107422 14.6455 0.101167 14.6455 0.211184V8.77593C14.6455 8.88595 14.735 8.97637 14.8457 8.97637H14.8472C14.958 8.97637 15.049 8.88595 15.049 8.77593V0.211184C15.049 0.101167 14.958 0.0107422 14.8472 0.0107422Z" fill="#F27E00"/>
<path d="M14.6454 10.262L14.1797 12.9642H15.4448L15.0489 10.262H14.6454Z" fill="#C15C00"/>
<path d="M15.0354 10.2615C15.0354 10.3173 14.9505 10.361 14.8473 10.361C14.7427 10.361 14.6592 10.3173 14.6592 10.2615C14.6592 10.2073 14.7427 10.1621 14.8473 10.1621C14.9505 10.1621 15.0354 10.2073 15.0354 10.2615Z" fill="#F27E00"/>
<path d="M15.445 12.981C15.445 13.1633 15.1644 13.311 14.817 13.311C14.4697 13.311 14.1875 13.1633 14.1875 12.981C14.1875 12.7971 14.4697 12.6494 14.817 12.6494C15.1644 12.6494 15.445 12.7971 15.445 12.981Z" fill="#C15C00"/>
<path d="M14.6455 0.582031V6.54254L20.0942 5.97588L14.6455 0.582031Z" fill="#DD2D38"/>
</g>
<defs>
<clipPath id="clip0_1_853">
<rect width="130" height="80" fill="white"/>
</clipPath>
</defs>
</svg>
