<svg width="22" height="18" viewBox="0 0 22 18" fill="none" xmlns="http://www.w3.org/2000/svg">
<path d="M16.8877 7.89673C18.2827 7.70073 19.3567 6.50473 19.3597 5.05573C19.3597 3.62773 18.3187 2.44373 16.9537 2.21973" stroke="#B8B8B8" stroke-width="1.5" stroke-linecap="round" stroke-linejoin="round"/>
<path d="M18.7285 11.2499C20.0795 11.4519 21.0225 11.9249 21.0225 12.8999C21.0225 13.5709 20.5785 14.0069 19.8605 14.2809" stroke="#B8B8B8" stroke-width="1.5" stroke-linecap="round" stroke-linejoin="round"/>
<path fill-rule="evenodd" clip-rule="evenodd" d="M10.8867 11.6638C7.67273 11.6638 4.92773 12.1508 4.92773 14.0958C4.92773 16.0398 7.65573 16.5408 10.8867 16.5408C14.1007 16.5408 16.8447 16.0588 16.8447 14.1128C16.8447 12.1668 14.1177 11.6638 10.8867 11.6638Z" stroke="#B8B8B8" stroke-width="1.5" stroke-linecap="round" stroke-linejoin="round"/>
<path fill-rule="evenodd" clip-rule="evenodd" d="M10.8864 8.88788C12.9954 8.88788 14.7054 7.17888 14.7054 5.06888C14.7054 2.95988 12.9954 1.24988 10.8864 1.24988C8.77744 1.24988 7.06741 2.95988 7.06741 5.06888C7.05944 7.17088 8.75644 8.88088 10.8584 8.88788H10.8864Z" stroke="#B8B8B8" stroke-width="1.5" stroke-linecap="round" stroke-linejoin="round"/>
<path d="M4.88509 7.89673C3.48909 7.70073 2.41609 6.50473 2.41309 5.05573C2.41309 3.62773 3.45409 2.44373 4.81909 2.21973" stroke="#B8B8B8" stroke-width="1.5" stroke-linecap="round" stroke-linejoin="round"/>
<path d="M3.044 11.2499C1.693 11.4519 0.75 11.9249 0.75 12.8999C0.75 13.5709 1.194 14.0069 1.912 14.2809" stroke="#B8B8B8" stroke-width="1.5" stroke-linecap="round" stroke-linejoin="round"/>
</svg>
