<svg width="45" height="45" viewBox="0 0 45 45" fill="none" xmlns="http://www.w3.org/2000/svg">
<path d="M14.7266 20.4631H30.4249" stroke="#10142D" stroke-width="1.5" stroke-linecap="round" stroke-linejoin="round"/>
<path d="M26.1038 14V16.8723" stroke="#10142D" stroke-width="1.5" stroke-linecap="round" stroke-linejoin="round"/>
<path d="M19.052 14V16.8723" stroke="#10142D" stroke-width="1.5" stroke-linecap="round" stroke-linejoin="round"/>
<path d="M30.4288 22.365V19.4314C30.4365 16.8073 28.8437 15.3789 26.2731 15.3789H18.8832C16.3193 15.3789 14.7188 16.8073 14.7188 19.4314V27.3302C14.7188 29.9953 16.3193 31.4567 18.8832 31.4567H21.0335" stroke="#10142D" stroke-width="1.5" stroke-linecap="round" stroke-linejoin="round"/>
<path fill-rule="evenodd" clip-rule="evenodd" d="M31.2822 28.1362C31.2822 30.269 29.5532 31.9981 27.4194 31.9981C25.2866 31.9981 23.5576 30.269 23.5576 28.1362C23.5576 26.0034 25.2866 24.2734 27.4194 24.2734C29.5532 24.2734 31.2822 26.0034 31.2822 28.1362Z" stroke="#10142D" stroke-width="1.5" stroke-linecap="round" stroke-linejoin="round"/>
<path d="M28.6195 29.1429L27.3984 28.4132V26.8438" stroke="#10142D" stroke-width="1.5" stroke-linecap="round" stroke-linejoin="round"/>
<path d="M18.6707 23.9347H18.6713" stroke="#10142D" stroke-width="1.5" stroke-linecap="round" stroke-linejoin="round"/>
<path d="M22.3484 23.9347H22.3491" stroke="#10142D" stroke-width="1.5" stroke-linecap="round" stroke-linejoin="round"/>
<path d="M18.6707 27.3253H18.6713" stroke="#10142D" stroke-width="1.5" stroke-linecap="round" stroke-linejoin="round"/>
<path d="M0.75 22.4999C0.75 14.1047 2.15929 8.74601 5.45266 5.45265C8.74604 2.15929 14.1047 0.75 22.5 0.75C30.8953 0.75 36.254 2.15929 39.5473 5.45265C42.8407 8.74601 44.25 14.1047 44.25 22.4999C44.25 30.8952 42.8407 36.2539 39.5473 39.5472C36.254 42.8406 30.8953 44.2499 22.5 44.2499C14.1047 44.2499 8.74604 42.8406 5.45266 39.5472C2.15929 36.2539 0.75 30.8952 0.75 22.4999Z" stroke="#E1E1E1" stroke-width="1.5" stroke-linecap="round" stroke-linejoin="round"/>
</svg>
