<svg width="24" height="24" viewBox="0 0 24 24" fill="none" xmlns="http://www.w3.org/2000/svg">
<path d="M10.5449 10.3342V5.72656" stroke="#B8B8B8" stroke-width="1.44" stroke-linecap="round" stroke-linejoin="round"/>
<path d="M14.9867 16.3848H10.2959" stroke="#B8B8B8" stroke-width="1.44" stroke-linecap="round" stroke-linejoin="round"/>
<path d="M4.36133 10.3867H19.2015C19.7731 10.3894 20.3205 10.6169 20.7247 11.0211C21.1289 11.4253 21.3574 11.9737 21.3601 12.5454V14.2155C21.3601 14.788 21.1326 15.337 20.7277 15.7418C20.3229 16.1465 19.774 16.3741 19.2015 16.3741H18.8694" stroke="#B8B8B8" stroke-width="1.44" stroke-linecap="round" stroke-linejoin="round"/>
<path d="M6.40413 16.3737C5.83068 16.3737 5.28053 16.1469 4.87408 15.7423C4.46761 15.3379 4.2381 14.7886 4.23535 14.2151V7.83344C4.2381 7.26001 4.46761 6.71069 4.87408 6.30618C5.28053 5.90167 5.83068 5.6748 6.40413 5.67481H14.0319C14.2451 5.67443 14.4543 5.73231 14.6371 5.84203C14.82 5.95174 14.9696 6.10873 15.0696 6.29706L17.2592 10.3549" stroke="#B8B8B8" stroke-width="1.44" stroke-linecap="round" stroke-linejoin="round"/>
<path d="M11.126 12.8555H12.1949" stroke="#B8B8B8" stroke-width="1.44" stroke-linecap="round" stroke-linejoin="round"/>
<path d="M2.16016 9.3689V12.7728" stroke="#B8B8B8" stroke-width="1.44" stroke-linecap="round" stroke-linejoin="round"/>
<path d="M8.35665 18.3255C9.42842 18.3255 10.2973 17.4567 10.2973 16.3849C10.2973 15.3131 9.42842 14.4443 8.35665 14.4443C7.28486 14.4443 6.41602 15.3131 6.41602 16.3849C6.41602 17.4567 7.28486 18.3255 8.35665 18.3255Z" stroke="#B8B8B8" stroke-width="1.44" stroke-linecap="round" stroke-linejoin="round"/>
<path d="M16.9289 18.3245C18.0007 18.3245 18.8696 17.4557 18.8696 16.3839C18.8696 15.3122 18.0007 14.4434 16.9289 14.4434C15.8571 14.4434 14.9883 15.3122 14.9883 16.3839C14.9883 17.4557 15.8571 18.3245 16.9289 18.3245Z" stroke="#B8B8B8" stroke-width="1.44" stroke-linecap="round" stroke-linejoin="round"/>
</svg>
