<svg width="24" height="24" viewBox="0 0 24 24" fill="none" xmlns="http://www.w3.org/2000/svg">
<path d="M10.5449 10.334V5.72632" stroke="#10142D" stroke-width="1.44" stroke-linecap="round" stroke-linejoin="round"/>
<path d="M14.9862 16.3843H10.2954" stroke="#10142D" stroke-width="1.44" stroke-linecap="round" stroke-linejoin="round"/>
<path d="M4.36133 10.3862H19.2015C19.7731 10.3889 20.3205 10.6164 20.7247 11.0206C21.1289 11.4249 21.3574 11.9732 21.3601 12.5449V14.215C21.3601 14.7875 21.1326 15.3365 20.7277 15.7413C20.3229 16.146 19.774 16.3737 19.2015 16.3737H18.8694" stroke="#10142D" stroke-width="1.44" stroke-linecap="round" stroke-linejoin="round"/>
<path d="M6.40461 16.3737C5.83117 16.3737 5.28102 16.1469 4.87457 15.7423C4.4681 15.3379 4.23859 14.7886 4.23584 14.2151V7.83344C4.23859 7.26001 4.4681 6.71069 4.87457 6.30618C5.28102 5.90167 5.83117 5.6748 6.40461 5.67481H14.0323C14.2456 5.67443 14.4547 5.73231 14.6376 5.84203C14.8205 5.95174 14.9701 6.10873 15.0701 6.29706L17.2597 10.3549" stroke="#10142D" stroke-width="1.44" stroke-linecap="round" stroke-linejoin="round"/>
<path d="M11.126 12.856H12.1949" stroke="#10142D" stroke-width="1.44" stroke-linecap="round" stroke-linejoin="round"/>
<path d="M2.16016 9.3689V12.7728" stroke="#10142D" stroke-width="1.44" stroke-linecap="round" stroke-linejoin="round"/>
<path d="M8.35665 18.325C9.42842 18.325 10.2973 17.4562 10.2973 16.3844C10.2973 15.3126 9.42842 14.4438 8.35665 14.4438C7.28486 14.4438 6.41602 15.3126 6.41602 16.3844C6.41602 17.4562 7.28486 18.325 8.35665 18.325Z" stroke="#10142D" stroke-width="1.44" stroke-linecap="round" stroke-linejoin="round"/>
<path d="M16.9294 18.325C18.0012 18.325 18.87 17.4562 18.87 16.3844C18.87 15.3126 18.0012 14.4438 16.9294 14.4438C15.8576 14.4438 14.9888 15.3126 14.9888 16.3844C14.9888 17.4562 15.8576 18.325 16.9294 18.325Z" stroke="#10142D" stroke-width="1.44" stroke-linecap="round" stroke-linejoin="round"/>
</svg>
