<svg width="48" height="48" viewBox="0 0 48 48" fill="none" xmlns="http://www.w3.org/2000/svg">
<circle cx="24" cy="24" r="24" fill="white"/>
<path d="M32.2992 25.4768C32.5653 28.1753 30.8153 31.1946 28.8 32.3725C26.4903 33.7224 22.5248 33.0078 20.4068 31.2167C19.0542 30.0729 17.7364 28.4913 16.9606 27.4976C16.5171 26.9295 16.4632 26.1591 16.7929 25.5182C17.3894 24.3587 18.9401 24.1122 19.8668 25.0294L20.862 26.0145C21.2088 26.3576 21.797 26.1967 21.9208 25.7248L24.3953 16.2894C24.6271 15.4058 25.5312 14.8773 26.4148 15.1091C27.2888 15.3383 27.8172 16.2265 27.6014 17.104L26.5794 21.2598C28.7624 22.0609 32.0348 22.7956 32.2992 25.4768Z" stroke="#DB2D37" stroke-width="1.5" stroke-linecap="round" stroke-linejoin="round"/>
<path d="M19.4258 15.7773L21.3867 16.6055L20.5609 18.5536" stroke="#DB2D37" stroke-width="1.5" stroke-linecap="round" stroke-linejoin="round"/>
<path d="M14.9092 19.9844L15.4893 22.0273L17.5291 21.4375" stroke="#DB2D37" stroke-width="1.5" stroke-linecap="round" stroke-linejoin="round"/>
<path d="M15.5 22.0391C16.2124 19.8302 18.1205 17.5761 21.3809 16.5977" stroke="#DB2D37" stroke-width="1.5" stroke-linecap="round" stroke-linejoin="round"/>
</svg>
