<svg width="48" height="48" viewBox="0 0 48 48" fill="none" xmlns="http://www.w3.org/2000/svg">
<circle cx="24" cy="24" r="24" fill="#DB2D37"/>
<path d="M32.2992 25.4769C32.5653 28.1754 30.8153 31.1947 28.8 32.3726C26.4903 33.7225 22.5248 33.0079 20.4068 31.2168C19.0542 30.073 17.7364 28.4914 16.9606 27.4977C16.5171 26.9296 16.4632 26.1592 16.7929 25.5183C17.3894 24.3588 18.9401 24.1123 19.8668 25.0295L20.862 26.0146C21.2088 26.3577 21.797 26.1968 21.9208 25.7249L24.3953 16.2895C24.6271 15.4059 25.5312 14.8775 26.4148 15.1092C27.2888 15.3384 27.8172 16.2266 27.6014 17.1041L26.5794 21.2599C28.7624 22.061 32.0348 22.7957 32.2992 25.4769Z" stroke="white" stroke-width="1.5" stroke-linecap="round" stroke-linejoin="round"/>
<path d="M19.4258 15.7773L21.3867 16.6055L20.5609 18.5536" stroke="white" stroke-width="1.5" stroke-linecap="round" stroke-linejoin="round"/>
<path d="M14.9092 19.9844L15.4893 22.0273L17.5291 21.4375" stroke="white" stroke-width="1.5" stroke-linecap="round" stroke-linejoin="round"/>
<path d="M15.5 22.0391C16.2124 19.8302 18.1205 17.5761 21.3809 16.5977" stroke="white" stroke-width="1.5" stroke-linecap="round" stroke-linejoin="round"/>
</svg>
