<svg width="45" height="45" viewBox="0 0 45 45" fill="none" xmlns="http://www.w3.org/2000/svg">
<path d="M0.75 22.4999C0.75 14.1047 2.15929 8.74601 5.45266 5.45265C8.74604 2.15929 14.1047 0.75 22.5 0.75C30.8953 0.75 36.254 2.15929 39.5473 5.45265C42.8407 8.74601 44.25 14.1047 44.25 22.4999C44.25 30.8952 42.8407 36.2539 39.5473 39.5472C36.254 42.8406 30.8953 44.2499 22.5 44.2499C14.1047 44.2499 8.74604 42.8406 5.45266 39.5472C2.15929 36.2539 0.75 30.8952 0.75 22.4999Z" stroke="#E1E1E1" stroke-width="1.5" stroke-linecap="round" stroke-linejoin="round"/>
<path fill-rule="evenodd" clip-rule="evenodd" d="M25.5 21.5005C25.5 20.1192 24.3808 19 23.0005 19C21.6192 19 20.5 20.1192 20.5 21.5005C20.5 22.8808 21.6192 24 23.0005 24C24.3808 24 25.5 22.8808 25.5 21.5005Z" stroke="#10142D" stroke-width="1.5" stroke-linecap="round" stroke-linejoin="round"/>
<path fill-rule="evenodd" clip-rule="evenodd" d="M22.9995 32C21.801 32 15.5 26.8984 15.5 21.5633C15.5 17.3866 18.8571 14 22.9995 14C27.1419 14 30.5 17.3866 30.5 21.5633C30.5 26.8984 24.198 32 22.9995 32Z" stroke="#10142D" stroke-width="1.5" stroke-linecap="round" stroke-linejoin="round"/>
</svg>
