<svg width="45" height="45" viewBox="0 0 45 45" fill="none" xmlns="http://www.w3.org/2000/svg">
<path fill-rule="evenodd" clip-rule="evenodd" d="M21.2073 24.1604C24.7825 27.7347 25.8454 23.3473 28.1219 25.6219C30.317 27.817 31.5783 28.2559 28.7984 31.0367C28.4494 31.3155 26.2365 34.6849 18.4592 26.9094C10.6818 19.133 14.0465 16.9173 14.3263 16.5702C17.1137 13.7819 17.546 15.0507 19.7411 17.2448C22.0166 19.5204 17.632 20.5861 21.2073 24.1604Z" stroke="#10142D" stroke-width="1.5" stroke-linecap="round" stroke-linejoin="round"/>
<path fill-rule="evenodd" clip-rule="evenodd" d="M24.3097 16.9204C23.9457 15.7816 24.3714 14.482 25.5654 14.0965C26.1941 13.8963 26.8809 14.0114 27.4096 14.4071C27.9382 14.0151 28.6222 13.8991 29.25 14.0965C30.4449 14.482 30.8734 15.7816 30.5095 16.9204C29.9415 18.7225 27.4096 20.1129 27.4096 20.1129C27.4096 20.1129 24.8963 18.744 24.3097 16.9204Z" stroke="#10142D" stroke-width="1.5" stroke-linecap="round" stroke-linejoin="round"/>
<path d="M0.75 22.4999C0.75 14.1047 2.15929 8.74601 5.45266 5.45265C8.74604 2.15929 14.1047 0.75 22.5 0.75C30.8953 0.75 36.254 2.15929 39.5473 5.45265C42.8407 8.74601 44.25 14.1047 44.25 22.4999C44.25 30.8952 42.8407 36.2539 39.5473 39.5472C36.254 42.8406 30.8953 44.2499 22.5 44.2499C14.1047 44.2499 8.74604 42.8406 5.45266 39.5472C2.15929 36.2539 0.75 30.8952 0.75 22.4999Z" stroke="#E1E1E1" stroke-width="1.5" stroke-linecap="round" stroke-linejoin="round"/>
</svg>
