<svg width="16" height="17" viewBox="0 0 16 17" fill="none" xmlns="http://www.w3.org/2000/svg">
<path fill-rule="evenodd" clip-rule="evenodd" d="M13.7734 6.0612C11.6681 4.15656 8.09982 1.92168 5.44355 0.852238C4.28867 0.477838 3.32099 0.520078 2.57315 0.977038C1.75427 1.4772 1.22147 2.46408 0.985307 3.93384C0.812507 5.47848 0.728027 7.10181 0.734747 8.75877C0.728027 10.4196 0.812506 12.0439 0.988186 13.6087C1.21091 15.0429 1.73507 16.025 2.54819 16.529C2.96579 16.7882 3.45251 16.9178 4.00451 16.9178C4.44323 16.9178 4.92227 16.8352 5.43971 16.6711C5.45219 16.6672 5.46371 16.6634 5.47427 16.6596C8.1027 15.6007 11.6711 13.3648 13.7686 11.464C14.7613 10.5924 15.2643 9.68325 15.2653 8.76165C15.2653 7.84005 14.7613 6.92997 13.7734 6.0612Z" fill="white"/>
</svg>
