<svg width="24" height="24" viewBox="0 0 24 24" fill="none" xmlns="http://www.w3.org/2000/svg">
<path fill-rule="evenodd" clip-rule="evenodd" d="M15.4688 11.8225C15.4648 12.7475 15.1008 13.6145 14.4448 14.2665C14.2998 14.4095 14.1408 14.5335 13.9778 14.6475C13.9638 14.6565 13.9528 14.6695 13.9398 14.6785C13.7628 14.7975 13.5758 14.8975 13.3818 14.9815C13.3708 14.9865 13.3618 14.9935 13.3508 14.9975C13.1538 15.0805 12.9478 15.1435 12.7378 15.1885C12.7248 15.1915 12.7138 15.1965 12.7008 15.1995C12.4768 15.2445 12.2458 15.2695 12.0118 15.2695H11.9898C11.7548 15.2695 11.5248 15.2445 11.2998 15.1995C11.2868 15.1965 11.2758 15.1915 11.2638 15.1885C11.0528 15.1435 10.8478 15.0805 10.6498 14.9975C10.6398 14.9935 10.6298 14.9865 10.6198 14.9815C10.4258 14.8975 10.2388 14.7975 10.0618 14.6785C10.0478 14.6695 10.0368 14.6565 10.0238 14.6475C9.85976 14.5335 9.70176 14.4095 9.55676 14.2665C8.90076 13.6145 8.53576 12.7475 8.53176 11.8225H8.53376C8.53376 11.8175 8.53176 11.8125 8.53176 11.8075C8.53176 11.3935 8.86776 11.0575 9.28176 11.0575C9.69676 11.0575 10.0318 11.3935 10.0318 11.8075C10.0318 11.9415 10.0458 12.0725 10.0718 12.1985C10.0808 12.2425 10.0988 12.2825 10.1098 12.3245C10.3388 13.1545 11.0938 13.7695 11.9988 13.7695H12.0018C12.9068 13.7695 13.6618 13.1545 13.8908 12.3245C13.9028 12.2825 13.9208 12.2425 13.9288 12.1985C13.9548 12.0725 13.9688 11.9415 13.9688 11.8075C13.9688 11.3935 14.3048 11.0575 14.7188 11.0575C15.1328 11.0575 15.4688 11.3935 15.4688 11.8075C15.4688 11.8125 15.4668 11.8175 15.4668 11.8225H15.4688ZM9.67176 4.83049C10.2928 4.21449 11.1158 3.87549 11.9938 3.87549H12.0088C13.7258 3.87549 15.1238 5.19949 15.2748 6.87749H8.72476C8.79376 6.10449 9.11476 5.38349 9.67176 4.83049ZM20.8828 15.8495L20.1468 10.1505C19.6148 7.73749 18.0588 6.87749 16.7788 6.87749H16.7748C16.6198 4.37249 14.5528 2.37549 12.0118 2.37549H11.9898C10.7178 2.37549 9.52076 2.86849 8.61476 3.76549C7.77576 4.59849 7.30076 5.69249 7.22576 6.87949C5.95076 6.88949 4.31776 7.75349 3.87176 10.1935L3.14476 15.8395C2.85176 17.7885 3.11976 19.2125 3.96476 20.1935C4.79476 21.1565 6.14376 21.6245 8.08776 21.6245H15.9058C17.6708 21.6245 19.0678 21.0905 19.9438 20.0795C20.8228 19.0645 21.1398 17.6385 20.8828 15.8495Z" fill="white"/>
</svg>
