<svg width="24" height="24" viewBox="0 0 24 24" fill="none" xmlns="http://www.w3.org/2000/svg">
<path d="M11.0256 14.64C7.82227 14.64 5.09058 15.124 5.09058 17.0629C5.09058 19.0007 7.80732 19.5015 11.0256 19.5015" stroke="#DB2D37" stroke-width="1.44" stroke-linecap="round" stroke-linejoin="round"/>
<path fill-rule="evenodd" clip-rule="evenodd" d="M16.0625 19.6785C16.0625 19.6785 18.2205 19.0251 18.2205 17.2233C18.2205 15.4224 18.2994 15.2821 18.1258 15.1077C17.9523 14.9334 16.3457 14.3738 16.0625 14.3738C15.7794 14.3738 14.1727 14.9342 13.9993 15.1077C13.8257 15.2813 13.9046 15.4216 13.9046 17.2233C13.9046 19.0251 16.0625 19.6785 16.0625 19.6785Z" stroke="#DB2D37" stroke-width="1.44" stroke-linecap="round" stroke-linejoin="round"/>
<path fill-rule="evenodd" clip-rule="evenodd" d="M14.8168 8.11039C14.8168 10.2044 13.1197 11.9016 11.0257 11.9016C8.93249 11.9016 7.23535 10.2044 7.23535 8.11039C7.23535 6.0172 8.93249 4.32007 11.0257 4.32007C13.1197 4.32007 14.8168 6.0172 14.8168 8.11039Z" stroke="#DB2D37" stroke-width="1.44" stroke-linecap="round" stroke-linejoin="round"/>
</svg>
